<svg width="16" height="25" viewBox="0 0 16 25" fill="none" xmlns="http://www.w3.org/2000/svg">
<path d="M7.40485 24.54C7.2105 24.4646 7.03293 24.3516 6.88235 24.2075L0.549019 17.8742C0.401392 17.7265 0.284287 17.5513 0.204392 17.3584C0.124496 17.1655 0.083374 16.9588 0.083374 16.75C0.083374 16.5412 0.124496 16.3345 0.204392 16.1416C0.284287 15.9487 0.401392 15.7735 0.549019 15.6258C0.696647 15.4782 0.871907 15.3611 1.06479 15.2812C1.25768 15.2013 1.46441 15.1602 1.67319 15.1602C1.88196 15.1602 2.0887 15.2013 2.28158 15.2812C2.47447 15.3611 2.64973 15.4782 2.79735 15.6258L6.42319 19.2675V0.916672H9.58985V19.2675L13.2157 15.6258C13.5138 15.3277 13.9182 15.1602 14.3399 15.1602C14.7615 15.1602 15.1659 15.3277 15.464 15.6258C15.7622 15.924 15.9297 16.3284 15.9297 16.75C15.9297 17.1716 15.7622 17.576 15.464 17.8742L9.13069 24.2075C8.98011 24.3516 8.80254 24.4646 8.60819 24.54C8.41866 24.6238 8.21373 24.667 8.00652 24.667C7.79931 24.667 7.59438 24.6238 7.40485 24.54Z" fill="#FCFCFC"/>
</svg>
