<svg width="517" height="1080" viewBox="0 0 517 1080" fill="none" xmlns="http://www.w3.org/2000/svg">
<g style="mix-blend-mode:soft-light">
<path d="M26.3989 -39C50.286 106.862 37.8933 177.207 37.8933 177.207C37.8933 177.207 -82.482 232.678 -227 350.763C-227 350.763 -161.792 288.865 17.5169 352.552C34.236 227.617 142.91 126 142.91 126C142.91 126 109.994 38.069 26.3989 -39Z" fill="#E29700"/>
<path d="M154.367 143.586C154.367 143.586 -73.115 324.031 52.6691 694.208C47.3166 331.992 340.404 227.125 382.725 29.5392C286.379 114.454 154.367 143.586 154.367 143.586Z" fill="#E29700"/>
<path d="M254.727 276.947C254.727 276.947 347.197 401.69 517 453.411C420.655 493.215 278.813 441.47 278.813 441.47C278.813 441.47 -57.0575 763.882 281.489 1146C15.2015 912.483 44.1249 621.02 122.252 453.411C177.04 335.872 254.727 276.947 254.727 276.947Z" fill="#E29700"/>
<path d="M173.101 912.484C179.791 1014.65 305.576 1146 305.576 1146H440.727C440.727 1146 237.331 1026.59 173.101 912.484Z" fill="#E29700"/>
</g>
</svg>
