<svg width="380" height="669" viewBox="0 0 380 669" fill="none" xmlns="http://www.w3.org/2000/svg">
<path d="M95.278 0.5C134 89.5456 112.43 124.5 112.43 124.5C112.43 124.5 12.5 132.534 0.499998 210.34C0.499998 210.34 -6.90907 173.526 95.278 210.34C104.806 138.12 166.739 79.3798 166.739 79.3798C166.739 79.3798 154.966 23.6197 95.278 0.5Z" fill="#E29700"/>
<path d="M173.268 89.5456C173.268 89.5456 43.6275 193.853 115.311 407.837C112.261 198.455 279.289 137.836 303.407 23.6197C248.501 72.7056 173.268 89.5456 173.268 89.5456Z" fill="#E29700"/>
<path d="M230.462 166.636C230.462 166.636 276 222 379.5 252C324.594 275.009 244.189 261.74 244.189 261.74C244.189 261.74 52.7786 448.113 245.714 669C93.9585 534.014 110.442 365.53 154.966 268.643C186.189 200.698 230.462 166.636 230.462 166.636Z" fill="#E29700"/>
<path d="M183.944 534.014C187.757 593.07 259.44 669 259.44 669H336.462C336.462 669 220.548 599.973 183.944 534.014Z" fill="#E29700"/>
</svg>
