<svg width="356" height="165" viewBox="0 0 356 165" fill="none" xmlns="http://www.w3.org/2000/svg">
<path d="M0 30.5654C0 30.5654 0 26.5054 0 21.5053V9.66725C0 4.66708 4.02274 0.607109 8.97707 0.607109H21.0453V8.4279H8.97707C8.29955 8.4279 7.74907 8.98347 7.74907 9.66725V21.5053C7.74907 22.1891 7.74907 30.5654 7.74907 30.5654H0Z" fill="#EFB134"/>
<path d="M49.515 9.68862V21.4839C49.515 26.4841 45.4923 30.5441 40.5379 30.5441H33.5511C28.5968 30.5441 24.574 26.4841 24.574 21.4839V9.68862C24.574 4.68845 28.5968 0.628477 33.5511 0.628477H40.5379C45.4923 0.628477 49.515 4.68845 49.515 9.68862ZM41.7659 21.4839V9.68862C41.7659 9.00484 41.2155 8.44926 40.5379 8.44926H33.5511C32.8736 8.44926 32.3231 9.00484 32.3231 9.68862V21.4839C32.3231 22.1677 32.8736 22.7233 33.5511 22.7233H40.5379C41.2155 22.7233 41.7659 22.1677 41.7659 21.4839Z" fill="#EFB134"/>
<path d="M64.3868 9.66725V30.5654H53.0437V22.8657H56.6377C56.6377 15.9424 56.6377 16.6333 56.6377 9.66725C56.6377 4.66708 60.6605 0.607109 65.6148 0.607109H71.213C76.1673 0.607109 80.19 4.66708 80.19 9.66725C80.19 15.0093 80.19 25.2234 80.19 30.5654H72.441C72.441 25.2234 72.441 15.0093 72.441 9.66725C72.441 8.98347 71.8905 8.4279 71.213 8.4279H65.6148C64.9373 8.4279 64.3868 8.98347 64.3868 9.66725Z" fill="#EFB134"/>
<path d="M108.66 9.68862V21.4839C108.66 26.4841 104.637 30.5441 99.6827 30.5441H92.6958C87.7415 30.5441 83.7188 26.4841 83.7188 21.4839V9.68862C83.7188 4.68845 87.7415 0.628477 92.6958 0.628477H99.6827C104.637 0.628477 108.66 4.68845 108.66 9.68862ZM100.911 21.4839V9.68862C100.911 9.00484 100.36 8.44926 99.6827 8.44926H92.6958C92.0183 8.44926 91.4678 9.00484 91.4678 9.68862V21.4839C91.4678 22.1677 92.0183 22.7233 92.6958 22.7233H99.6827C100.36 22.7233 100.911 22.1677 100.911 21.4839Z" fill="#EFB134"/>
<path d="M133.234 30.5654H121.166C116.211 30.5654 112.188 26.5054 112.188 21.5053V9.66725C112.188 4.66708 116.211 0.607109 121.166 0.607109H133.234V8.4279H121.166C120.488 8.4279 119.938 8.98347 119.938 9.66725V21.5053C119.938 22.1891 120.488 22.7446 121.166 22.7446H133.234V30.5654Z" fill="#EFB134"/>
<path d="M161.703 9.68862V21.4839C161.703 26.4841 157.681 30.5441 152.726 30.5441H145.74C140.785 30.5441 136.762 26.4841 136.762 21.4839V9.68862C136.762 4.68845 140.785 0.628477 145.74 0.628477H152.726C157.681 0.628477 161.703 4.68845 161.703 9.68862ZM153.954 21.4839V9.68862C153.954 9.00484 153.404 8.44926 152.726 8.44926H145.74C145.062 8.44926 144.512 9.00484 144.512 9.68862V21.4839C144.512 22.1677 145.062 22.7233 145.74 22.7233H152.726C153.404 22.7233 153.954 22.1677 153.954 21.4839Z" fill="#EFB134"/>
<path d="M172.939 22.7446H180.561C182.932 22.7446 182.975 19.4967 180.519 19.4967H174.209V11.6759H179.799C181.958 11.6759 181.831 8.29969 179.799 8.29969H174.209C173.532 8.29969 172.939 8.85526 172.939 9.53905C172.939 12.8725 172.939 16.1632 172.939 19.4967V22.7446ZM180.984 30.5654C175.734 30.5654 170.483 30.5654 165.232 30.5654V9.66725C165.232 4.66708 168.577 0.607109 173.532 0.607109H179.968C187.887 0.607109 191.359 10.2656 186.955 14.9238C192.333 18.3 191.274 30.5654 180.984 30.5654Z" fill="#EFB134"/>
<path d="M201.423 9.66725V14.0691H209.637V21.8899H201.423V30.5654H193.673C193.673 23.6421 193.673 16.6333 193.673 9.66725C193.673 4.66708 197.696 0.607109 202.651 0.607109H209.637C214.592 0.607109 218.614 4.66708 218.614 9.66725C218.614 15.0093 218.614 25.2234 218.614 30.5654H210.865C210.865 25.2234 210.865 15.0093 210.865 9.66725C210.865 8.98347 210.315 8.4279 209.637 8.4279H202.651C201.973 8.4279 201.423 8.98347 201.423 9.66725Z" fill="#EFB134"/>
<path d="M239.335 0.607109H247.084V30.5654H239.335V0.607109ZM222.143 0.607109H229.892V11.6759H238.107V19.4967H229.892V30.5654H222.143V0.607109Z" fill="#EFB134"/>
<path d="M258.362 0.665497H250.613C250.613 8.23757 250.613 16.0235 250.613 23.5956C250.613 31.5099 258.912 33.05 263.486 29.0287C264.714 27.9164 265.645 26.2908 266.111 23.8095C266.916 19.7882 267.678 15.2107 268.482 11.1894L269.16 6.35525L269.583 6.39803L269.118 11.3605V30.6543H276.867C276.867 23.0823 276.867 15.1679 276.867 7.59587C276.867 -0.318445 268.567 -1.90131 264.036 2.1628C262.808 3.2323 261.877 4.90072 261.368 7.38197C260.564 11.3605 259.802 15.9808 258.997 19.9593L258.32 24.8362L257.939 24.7935L258.362 19.1465V0.665497Z" fill="#EFB134"/>
<path d="M301.441 30.5654H289.372C284.418 30.5654 280.395 26.5054 280.395 21.5053V9.66725C280.395 4.66708 284.418 0.607109 289.372 0.607109H301.441V8.4279H289.372C288.695 8.4279 288.144 8.98347 288.144 9.66725V11.6759H301.441V19.4967H288.144V21.5053C288.144 22.1891 288.695 22.7446 289.372 22.7446H301.441V30.5654Z" fill="#EFB134"/>
<path d="M0 60.1194L7.1139 51.5294L9.78161 53.0679L3.85336 60.3758L9.78161 67.6838L7.1139 69.265L0 60.675V60.1194ZM8.38424 60.1194L15.5828 51.5294L18.2082 53.0679L12.2799 60.3758L18.2082 67.6838L15.5828 69.265L8.38424 60.675V60.1194Z" fill="#EFB134"/>
<path d="M42.7822 75.3763H30.714C25.7597 75.3763 21.7369 71.3164 21.7369 66.3162V54.4782C21.7369 49.478 25.7597 45.418 30.714 45.418H42.7822V53.2388H30.714C30.0365 53.2388 29.486 53.7944 29.486 54.4782V66.3162C29.486 67 30.0365 67.5555 30.714 67.5555H42.7822V75.3763Z" fill="#EFB134"/>
<path d="M52.6626 53.0038H46.3109V45.4394H66.721V53.0038H60.4117V75.355H52.6626V53.0038Z" fill="#EFB134"/>
<path d="M95.8259 45.4394L84.6893 75.355H75.2976L81.0318 65.3386C78.3376 64.8934 74.7383 61.3801 73.8491 58.2176L70.2498 45.4394H78.3376L81.4287 56.4654C81.9369 58.0039 84.0541 58.474 84.6893 56.4654L87.7381 45.4394H95.8259Z" fill="#EFB134"/>
<path d="M115.276 75.3763C109.983 75.3763 104.648 75.3763 99.3547 75.3763V45.418C104.648 45.418 109.983 45.418 115.276 45.418C120.231 45.418 124.253 49.478 124.253 54.4782V66.3162C124.253 71.3164 120.231 75.3763 115.276 75.3763ZM107.104 53.2388V67.5555H115.276C115.954 67.5555 116.504 67 116.504 66.3162V54.4782C116.504 53.7944 115.954 53.2388 115.276 53.2388H107.104Z" fill="#EFB134"/>
<path d="M148.827 75.3763H136.759C131.805 75.3763 127.782 71.3164 127.782 66.3162V54.4782C127.782 49.478 131.805 45.418 136.759 45.418H148.827V53.2388H136.759C136.082 53.2388 135.531 53.7944 135.531 54.4782V56.4868H148.827V64.3076H135.531V66.3162C135.531 67 136.082 67.5555 136.759 67.5555H148.827V75.3763Z" fill="#EFB134"/>
<path d="M169.548 45.418H177.297V75.3763H169.548V45.418ZM152.356 45.418H160.105V56.4868H168.32V64.3076H160.105V75.3763H152.356V45.418Z" fill="#EFB134"/>
<path d="M187.177 53.0038H180.826V45.4394H201.236V53.0038H194.927V75.355H187.177V53.0038Z" fill="#EFB134"/>
<path d="M219.571 46.0835H211.822C211.822 53.6556 211.822 61.4416 211.822 69.0137C211.822 76.928 220.122 78.4681 224.695 74.4467C225.923 73.3344 226.854 71.7088 227.32 69.2276C228.125 65.2062 228.887 60.6288 229.691 56.6074L230.369 51.7733L230.792 51.8161L230.327 56.7786V76.0724H238.076C238.076 68.5003 238.076 60.586 238.076 53.0139C238.076 45.0996 229.776 43.5167 225.245 47.5808C224.017 48.6503 223.086 50.3188 222.578 52.8C221.773 56.7786 221.011 61.3988 220.206 65.3774L219.529 70.2543L219.148 70.2115L219.571 64.5645V46.0835Z" fill="#EFB134"/>
<path d="M7.74907 120.774H0L1.80652e-06 99.9185C2.23964e-06 94.9183 4.02275 90.8583 8.97707 90.8583H15.9216C20.8759 90.8583 24.8987 94.9183 24.8987 99.9185L24.8987 120.774H17.1496L17.1496 99.9185C17.1496 99.2347 16.5991 98.6791 15.9216 98.6791H8.97707C8.29955 98.6791 7.74907 99.2347 7.74907 99.9185L7.74907 120.774Z" fill="#EFB134"/>
<path d="M44.349 115.966H37.4044V108.145H44.349C45.0265 108.145 45.577 107.59 45.577 106.906V99.8971C45.577 99.2133 45.0265 98.6577 44.349 98.6577H37.4044C36.7269 98.6577 36.1764 99.2133 36.1764 99.8971C36.1764 106.863 36.1764 113.829 36.1764 120.795H28.4274C28.4274 113.829 28.4274 106.863 28.4274 99.8971C28.4274 94.8969 32.4501 90.8369 37.4044 90.8369H44.349C49.3033 90.8369 53.326 94.8969 53.326 99.8971V106.906C53.326 111.906 49.3033 115.966 44.349 115.966Z" fill="#EFB134"/>
<path d="M77.9 120.795H65.8318C60.8775 120.795 56.8547 116.735 56.8547 111.735V99.8971C56.8547 94.8969 60.8775 90.8369 65.8318 90.8369H77.9V98.6577H65.8318C65.1543 98.6577 64.6038 99.2133 64.6038 99.8971V101.906H77.9V109.726H64.6038V111.735C64.6038 112.419 65.1543 112.974 65.8318 112.974H77.9V120.795Z" fill="#EFB134"/>
<path d="M89.1778 120.774H81.4288V99.9185C81.4288 94.9183 85.4515 90.8583 90.4058 90.8583H97.3503C102.305 90.8583 106.327 94.9183 106.327 99.9185V120.774H98.5783V99.9185C98.5783 99.2347 98.0279 98.6791 97.3503 98.6791H90.4058C89.7283 98.6791 89.1778 99.2347 89.1778 99.9185L89.1778 120.774Z" fill="#EFB134"/>
<path d="M134.797 99.9185V111.714C134.797 116.714 130.774 120.774 125.82 120.774H118.833C113.879 120.774 109.856 116.714 109.856 111.714V99.9185C109.856 94.9183 113.879 90.8583 118.833 90.8583H125.82C130.774 90.8583 134.797 94.9183 134.797 99.9185ZM127.048 111.714V99.9185C127.048 99.2347 126.498 98.6791 125.82 98.6791H118.833C118.156 98.6791 117.605 99.2347 117.605 99.9185V111.714C117.605 112.398 118.156 112.953 118.833 112.953H125.82C126.498 112.953 127.048 112.398 127.048 111.714Z" fill="#EFB134"/>
<path d="M154.247 120.795C148.954 120.795 143.619 120.795 138.326 120.795V90.8369C143.619 90.8369 148.954 90.8369 154.247 90.8369C159.202 90.8369 163.225 94.8969 163.225 99.8971V111.735C163.225 116.735 159.202 120.795 154.247 120.795ZM146.075 98.6577V112.974H154.247C154.925 112.974 155.475 112.419 155.475 111.735V99.8971C155.475 99.2133 154.925 98.6577 154.247 98.6577H146.075Z" fill="#EFB134"/>
<path d="M174.502 99.8971V104.299H182.717V112.12H174.502V120.795H166.753C166.753 113.872 166.753 106.863 166.753 99.8971C166.753 94.8969 170.776 90.8369 175.73 90.8369H182.717C187.671 90.8369 191.694 94.8969 191.694 99.8971C191.694 105.239 191.694 115.453 191.694 120.795H183.945C183.945 115.453 183.945 105.239 183.945 99.8971C183.945 99.2133 183.395 98.6577 182.717 98.6577H175.73C175.053 98.6577 174.502 99.2133 174.502 99.8971Z" fill="#EFB134"/>
<path d="M202.93 112.974H210.552C212.923 112.974 212.965 109.726 210.509 109.726H204.2V101.906H209.789C211.949 101.906 211.822 98.5295 209.789 98.5295H204.2C203.522 98.5295 202.93 99.0851 202.93 99.7689C202.93 103.102 202.93 106.393 202.93 109.726V112.974ZM210.975 120.795C205.724 120.795 200.474 120.795 195.223 120.795V99.8971C195.223 94.8969 198.568 90.8369 203.522 90.8369H209.959C217.877 90.8369 221.35 100.495 216.946 105.154C222.324 108.53 221.265 120.795 210.975 120.795Z" fill="#EFB134"/>
<path d="M231.413 99.8971V104.299H239.628V112.12H231.413V120.795H223.664C223.664 113.872 223.664 106.863 223.664 99.8971C223.664 94.8969 227.687 90.8369 232.641 90.8369H239.628C244.582 90.8369 248.605 94.8969 248.605 99.8971C248.605 105.239 248.605 115.453 248.605 120.795H240.856C240.856 115.453 240.856 105.239 240.856 99.8971C240.856 99.2133 240.306 98.6577 239.628 98.6577H232.641C231.964 98.6577 231.413 99.2133 231.413 99.8971Z" fill="#EFB134"/>
<path d="M258.486 98.4227H252.134V90.8583H272.544V98.4227H266.235V120.774H258.486V98.4227Z" fill="#EFB134"/>
<path d="M297.118 120.795H285.05C280.096 120.795 276.073 116.735 276.073 111.735V99.8971C276.073 94.8969 280.096 90.8369 285.05 90.8369H297.118V98.6577H285.05C284.372 98.6577 283.822 99.2133 283.822 99.8971V101.906H297.118V109.726H283.822V111.735C283.822 112.419 284.372 112.974 285.05 112.974H297.118V120.795Z" fill="#EFB134"/>
<path d="M311.99 99.8971V120.795H300.647V113.096H304.241C304.241 106.172 304.241 106.863 304.241 99.8971C304.241 94.8969 308.264 90.8369 313.218 90.8369H318.816C323.77 90.8369 327.793 94.8969 327.793 99.8971C327.793 105.239 327.793 115.453 327.793 120.795H320.044C320.044 115.453 320.044 105.239 320.044 99.8971C320.044 99.2133 319.494 98.6577 318.816 98.6577H313.218C312.54 98.6577 311.99 99.2133 311.99 99.8971Z" fill="#EFB134"/>
<path d="M347.102 95.6656H340.219V103.487H347.102C347.774 103.487 348.32 104.042 348.32 104.726V111.735C348.32 112.419 347.774 112.975 347.102 112.975H340.219C339.548 112.975 339.002 112.419 339.002 111.735C339.002 104.769 339.002 97.8025 339.002 90.8361H331.322C331.322 97.8025 331.322 104.769 331.322 111.735C331.322 116.736 335.309 120.796 340.219 120.796H347.102C352.013 120.796 356 116.736 356 111.735V104.726C356 99.7258 352.013 95.6656 347.102 95.6656Z" fill="#EFB134"/>
<path d="M0 165C0 165 0 160.94 0 155.94V144.102C0 139.102 4.02274 135.042 8.97707 135.042H21.0453V142.862H8.97707C8.29955 142.862 7.74907 143.418 7.74907 144.102V155.94C7.74907 156.624 7.74907 165 7.74907 165H0Z" fill="#EFB134"/>
<path d="M49.515 144.123V155.918C49.515 160.919 45.4923 164.979 40.5379 164.979H33.5511C28.5968 164.979 24.574 160.919 24.574 155.918V144.123C24.574 139.123 28.5968 135.063 33.5511 135.063H40.5379C45.4923 135.063 49.515 139.123 49.515 144.123ZM41.7659 155.918V144.123C41.7659 143.439 41.2155 142.884 40.5379 142.884H33.5511C32.8736 142.884 32.3231 143.439 32.3231 144.123V155.918C32.3231 156.602 32.8736 157.158 33.5511 157.158H40.5379C41.2155 157.158 41.7659 156.602 41.7659 155.918Z" fill="#EFB134"/>
<path d="M68.9653 165C63.6722 165 58.3368 165 53.0437 165V135.042C58.3368 135.042 63.6722 135.042 68.9653 135.042C73.9196 135.042 77.9424 139.102 77.9424 144.102V155.94C77.9424 160.94 73.9196 165 68.9653 165ZM60.7928 142.862V157.179H68.9653C69.6428 157.179 70.1933 156.624 70.1933 155.94V144.102C70.1933 143.418 69.6428 142.862 68.9653 142.862H60.7928Z" fill="#EFB134"/>
<path d="M89.2202 144.102V148.504H97.435V156.324H89.2202V165H81.4711C81.4711 158.077 81.4711 151.068 81.4711 144.102C81.4711 139.102 85.4938 135.042 90.4482 135.042H97.435C102.389 135.042 106.412 139.102 106.412 144.102C106.412 149.444 106.412 159.658 106.412 165H98.663C98.663 159.658 98.663 149.444 98.663 144.102C98.663 143.418 98.1125 142.862 97.435 142.862H90.4482C89.7707 142.862 89.2202 143.418 89.2202 144.102Z" fill="#EFB134"/>
<path d="M128.149 150.299L121.035 158.889L118.367 157.35L124.296 150.042L118.367 142.734L121.035 141.153L128.149 149.743V150.299ZM119.765 150.299L112.566 158.889L109.941 157.35L115.869 150.042L109.941 142.734L112.566 141.153L119.765 149.743V150.299Z" fill="#EFB134"/>
<path d="M138.735 135.042H147.035C152.328 135.042 155.969 139.23 154.233 144.786C152.963 148.931 151.82 153.119 150.549 157.222H158.171V165H142.885C141.106 165 140.641 164.06 140.979 162.436C142.8 156.367 144.706 150.47 146.569 144.444C146.781 143.674 146.484 142.862 145.553 142.862H138.735V135.042Z" fill="#EFB134"/>
<path d="M184.45 144.145V155.94C184.45 160.94 180.427 165 175.473 165H168.486C163.531 165 159.509 160.94 159.509 155.94V144.145C159.509 139.144 163.531 135.084 168.486 135.084H175.473C180.427 135.084 184.45 139.144 184.45 144.145ZM176.701 155.94V144.145C176.701 143.461 176.15 142.905 175.473 142.905H168.486C167.808 142.905 167.258 143.461 167.258 144.145V155.94C167.258 156.624 167.808 157.179 168.486 157.179H175.473C176.15 157.179 176.701 156.624 176.701 155.94Z" fill="#EFB134"/>
<path d="M185.729 135.042H194.028C199.321 135.042 202.963 139.23 201.227 144.786C199.957 148.931 198.813 153.119 197.543 157.222H205.165V165H189.879C188.1 165 187.634 164.06 187.973 162.436C189.794 156.367 191.699 150.47 193.562 144.444C193.774 143.674 193.478 142.862 192.546 142.862H185.729V135.042Z" fill="#EFB134"/>
<path d="M223.355 149.786C228.437 152.307 228.987 165 218.316 165H206.502V157.179H217.554C219.29 157.179 219.29 153.718 217.554 153.718H206.502V146.025H217.385C219.036 146.025 219.036 142.606 217.385 142.606H206.502V135.042H217.385C226.192 135.042 228.691 146.281 223.355 149.786Z" fill="#EFB134"/>
</svg>
