<svg width="893" height="371" viewBox="0 0 893 371" fill="none" xmlns="http://www.w3.org/2000/svg">
<path d="M0 68.6598C0 68.6598 0 59.5398 0 48.3078V21.7158C0 10.4838 9.12 1.36377 20.352 1.36377H47.712V18.9318H20.352C18.816 18.9318 17.568 20.1798 17.568 21.7158V48.3078C17.568 49.8438 17.568 68.6598 17.568 68.6598H0Z" fill="#EFB134"/>
<path d="M112.256 21.7637V48.2597C112.256 59.4917 103.136 68.6117 91.904 68.6117H76.064C64.832 68.6117 55.712 59.4917 55.712 48.2597V21.7637C55.712 10.5317 64.832 1.41174 76.064 1.41174H91.904C103.136 1.41174 112.256 10.5317 112.256 21.7637ZM94.688 48.2597V21.7637C94.688 20.2277 93.44 18.9797 91.904 18.9797H76.064C74.528 18.9797 73.28 20.2277 73.28 21.7637V48.2597C73.28 49.7957 74.528 51.0437 76.064 51.0437H91.904C93.44 51.0437 94.688 49.7957 94.688 48.2597Z" fill="#EFB134"/>
<path d="M145.972 21.7158V31.6038V49.1718V68.6598H120.256V51.3638H128.404C128.404 35.8118 128.404 37.3638 128.404 21.7158C128.404 10.4838 137.524 1.36377 148.756 1.36377H161.448C172.68 1.36377 181.8 10.4838 181.8 21.7158C181.8 33.7158 181.8 56.6598 181.8 68.6598H164.232C164.232 56.6598 164.232 33.7158 164.232 21.7158C164.232 20.1798 162.984 18.9318 161.448 18.9318H148.756C147.22 18.9318 145.972 20.1798 145.972 21.7158Z" fill="#EFB134"/>
<path d="M246.344 21.7637V48.2597C246.344 59.4917 237.224 68.6117 225.992 68.6117H210.152C198.92 68.6117 189.8 59.4917 189.8 48.2597V21.7637C189.8 10.5317 198.92 1.41174 210.152 1.41174H225.992C237.224 1.41174 246.344 10.5317 246.344 21.7637ZM228.776 48.2597V21.7637C228.776 20.2277 227.528 18.9797 225.992 18.9797H210.152C208.616 18.9797 207.368 20.2277 207.368 21.7637V48.2597C207.368 49.7957 208.616 51.0437 210.152 51.0437H225.992C227.528 51.0437 228.776 49.7957 228.776 48.2597Z" fill="#EFB134"/>
<path d="M302.056 68.6598H274.696C263.464 68.6598 254.344 59.5398 254.344 48.3078V21.7158C254.344 10.4838 263.464 1.36377 274.696 1.36377H302.056V18.9318H274.696C273.16 18.9318 271.912 20.1798 271.912 21.7158V48.3078C271.912 49.8438 273.16 51.0918 274.696 51.0918H302.056V68.6598Z" fill="#EFB134"/>
<path d="M366.6 21.7637V48.2597C366.6 59.4917 357.48 68.6117 346.248 68.6117H330.408C319.176 68.6117 310.056 59.4917 310.056 48.2597V21.7637C310.056 10.5317 319.176 1.41174 330.408 1.41174H346.248C357.48 1.41174 366.6 10.5317 366.6 21.7637ZM349.032 48.2597V21.7637C349.032 20.2277 347.784 18.9797 346.248 18.9797H330.408C328.872 18.9797 327.624 20.2277 327.624 21.7637V48.2597C327.624 49.7957 328.872 51.0437 330.408 51.0437H346.248C347.784 51.0437 349.032 49.7957 349.032 48.2597Z" fill="#EFB134"/>
<path d="M392.072 51.0918H409.352C414.728 51.0918 414.824 43.7958 409.256 43.7958H394.952V26.2278H407.624C412.52 26.2278 412.232 18.6438 407.624 18.6438H394.952C393.416 18.6438 392.072 19.8918 392.072 21.4278C392.072 28.9158 392.072 36.3078 392.072 43.7958V51.0918ZM410.312 68.6598C398.408 68.6598 386.504 68.6598 374.6 68.6598V21.7158C374.6 10.4838 382.184 1.36377 393.416 1.36377H408.008C425.96 1.36377 433.832 23.0598 423.848 33.5238C436.04 41.1078 433.64 68.6598 410.312 68.6598Z" fill="#EFB134"/>
<path d="M456.647 21.7158V31.6038H475.271V49.1718H456.647V68.6598H439.079C439.079 53.1078 439.079 37.3638 439.079 21.7158C439.079 10.4838 448.199 1.36377 459.431 1.36377H475.271C486.503 1.36377 495.623 10.4838 495.623 21.7158C495.623 33.7158 495.623 56.6598 495.623 68.6598H478.055C478.055 56.6598 478.055 33.7158 478.055 21.7158C478.055 20.1798 476.807 18.9318 475.271 18.9318H459.431C457.895 18.9318 456.647 20.1798 456.647 21.7158Z" fill="#EFB134"/>
<path d="M542.599 1.36377H560.167V68.6598H542.599V1.36377ZM503.623 1.36377H521.191V26.2278H539.815V43.7958H521.191V68.6598H503.623V1.36377Z" fill="#EFB134"/>
<path d="M585.735 1.49492H568.167C568.167 18.5042 568.167 35.994 568.167 53.0034C568.167 70.7815 586.983 74.241 597.351 65.2078C600.135 62.7092 602.247 59.0575 603.303 53.4839C605.127 44.4507 606.855 34.1682 608.679 25.135L610.215 14.2759L611.175 14.372L610.119 25.5194V68.8595H627.687C627.687 51.8502 627.687 34.0721 627.687 17.0628C627.687 -0.71533 608.871 -4.27095 598.599 4.85835C595.815 7.26079 593.703 11.0086 592.551 16.5823C590.727 25.5194 588.999 35.8979 587.175 44.835L585.639 55.7902L584.775 55.6941L585.735 43.0092V1.49492Z" fill="#EFB134"/>
<path d="M683.399 68.6598H656.039C644.807 68.6598 635.687 59.5398 635.687 48.3078V21.7158C635.687 10.4838 644.807 1.36377 656.039 1.36377H683.399V18.9318H656.039C654.503 18.9318 653.255 20.1798 653.255 21.7158V26.2278H683.399V43.7958H653.255V48.3078C653.255 49.8438 654.503 51.0918 656.039 51.0918H683.399V68.6598Z" fill="#EFB134"/>
<path d="M0 135.048L16.128 115.752L22.176 119.208L8.736 135.624L22.176 152.04L16.128 155.592L0 136.296V135.048ZM19.008 135.048L35.328 115.752L41.28 119.208L27.84 135.624L41.28 152.04L35.328 155.592L19.008 136.296V135.048Z" fill="#EFB134"/>
<path d="M96.992 169.32H69.632C58.4 169.32 49.28 160.2 49.28 148.968V122.376C49.28 111.144 58.4 102.024 69.632 102.024H96.992V119.592H69.632C68.096 119.592 66.848 120.84 66.848 122.376V148.968C66.848 150.504 68.096 151.752 69.632 151.752H96.992V169.32Z" fill="#EFB134"/>
<path d="M119.392 119.064H104.992V102.072H151.264V119.064H136.96V169.272H119.392V119.064Z" fill="#EFB134"/>
<path d="M217.248 102.072L192 169.272H170.708L183.708 146.772C177.6 145.772 169.44 137.88 167.424 130.776L159.264 102.072H177.6L184.608 126.84C185.76 130.296 190.56 131.352 192 126.84L198.912 102.072H217.248Z" fill="#EFB134"/>
<path d="M261.344 169.32C249.344 169.32 237.248 169.32 225.248 169.32V102.024C237.248 102.024 249.344 102.024 261.344 102.024C272.576 102.024 281.696 111.144 281.696 122.376V148.968C281.696 160.2 272.576 169.32 261.344 169.32ZM242.816 119.592V151.752H261.344C262.88 151.752 264.128 150.504 264.128 148.968V122.376C264.128 120.84 262.88 119.592 261.344 119.592H242.816Z" fill="#EFB134"/>
<path d="M337.408 169.32H310.048C298.816 169.32 289.696 160.2 289.696 148.968V122.376C289.696 111.144 298.816 102.024 310.048 102.024H337.408V119.592H310.048C308.512 119.592 307.264 120.84 307.264 122.376V126.888H337.408V144.456H307.264V148.968C307.264 150.504 308.512 151.752 310.048 151.752H337.408V169.32Z" fill="#EFB134"/>
<path d="M384.384 102.024H401.952V169.32H384.384V102.024ZM345.408 102.024H362.976V126.888H381.6V144.456H362.976V169.32H345.408V102.024Z" fill="#EFB134"/>
<path d="M424.352 119.064H409.952V102.072H456.224V119.064H441.92V169.272H424.352V119.064Z" fill="#EFB134"/>
<path d="M497.792 103.518H480.224C480.224 120.528 480.224 138.018 480.224 155.027C480.224 172.805 499.04 176.265 509.408 167.231C512.192 164.733 514.304 161.081 515.36 155.507C517.184 146.474 518.912 136.192 520.736 127.159L522.272 116.299L523.232 116.396L522.176 127.543V170.883H539.744C539.744 153.874 539.744 136.096 539.744 119.086C539.744 101.308 520.928 97.7526 510.656 106.882C507.872 109.284 505.76 113.032 504.608 118.606C502.784 127.543 501.056 137.922 499.232 146.859L497.696 157.814L496.832 157.718L497.792 145.033V103.518Z" fill="#EFB134"/>
<path d="M17.568 271.297L-3.8147e-06 271.297L2.80885e-07 224.449C1.26282e-06 213.217 9.12 204.097 20.352 204.097L36.096 204.097C47.328 204.097 56.448 213.217 56.448 224.449L56.448 271.297L38.88 271.297L38.88 224.449C38.88 222.913 37.632 221.665 36.096 221.665L20.352 221.665C18.816 221.665 17.568 222.913 17.568 224.449L17.568 271.297Z" fill="#EFB134"/>
<path d="M100.544 260.497H84.8V242.929H100.544C102.08 242.929 103.328 241.681 103.328 240.145V224.401C103.328 222.865 102.08 221.617 100.544 221.617H84.8C83.264 221.617 82.016 222.865 82.016 224.401C82.016 240.049 82.016 255.697 82.016 271.345H64.448C64.448 255.697 64.448 240.049 64.448 224.401C64.448 213.169 73.568 204.049 84.8 204.049H100.544C111.776 204.049 120.896 213.169 120.896 224.401V240.145C120.896 251.377 111.776 260.497 100.544 260.497Z" fill="#EFB134"/>
<path d="M176.608 271.345H149.248C138.016 271.345 128.896 262.225 128.896 250.993V224.401C128.896 213.169 138.016 204.049 149.248 204.049H176.608V221.617H149.248C147.712 221.617 146.464 222.865 146.464 224.401V228.913H176.608V246.481H146.464V250.993C146.464 252.529 147.712 253.777 149.248 253.777H176.608V271.345Z" fill="#EFB134"/>
<path d="M202.176 271.297L184.608 271.297L184.608 224.449C184.608 213.217 193.728 204.097 204.96 204.097L220.704 204.097C231.936 204.097 241.056 213.217 241.056 224.449L241.056 271.297L223.488 271.297L223.488 224.449C223.488 222.913 222.24 221.665 220.704 221.665L204.96 221.665C203.424 221.665 202.176 222.913 202.176 224.449L202.176 271.297Z" fill="#EFB134"/>
<path d="M305.6 224.449V250.945C305.6 262.177 296.48 271.297 285.248 271.297H269.408C258.176 271.297 249.056 262.177 249.056 250.945V224.449C249.056 213.217 258.176 204.097 269.408 204.097H285.248C296.48 204.097 305.6 213.217 305.6 224.449ZM288.032 250.945V224.449C288.032 222.913 286.784 221.665 285.248 221.665H269.408C267.872 221.665 266.624 222.913 266.624 224.449V250.945C266.624 252.481 267.872 253.729 269.408 253.729H285.248C286.784 253.729 288.032 252.481 288.032 250.945Z" fill="#EFB134"/>
<path d="M349.696 271.345C337.696 271.345 325.6 271.345 313.6 271.345V204.049C325.6 204.049 337.696 204.049 349.696 204.049C360.928 204.049 370.048 213.169 370.048 224.401V250.993C370.048 262.225 360.928 271.345 349.696 271.345ZM331.168 221.617V253.777H349.696C351.232 253.777 352.48 252.529 352.48 250.993V224.401C352.48 222.865 351.232 221.617 349.696 221.617H331.168Z" fill="#EFB134"/>
<path d="M395.616 224.401V234.289H414.24V251.857H395.616V271.345H378.048C378.048 255.793 378.048 240.049 378.048 224.401C378.048 213.169 387.168 204.049 398.4 204.049H414.24C425.472 204.049 434.592 213.169 434.592 224.401C434.592 236.401 434.592 259.345 434.592 271.345H417.024C417.024 259.345 417.024 236.401 417.024 224.401C417.024 222.865 415.776 221.617 414.24 221.617H398.4C396.864 221.617 395.616 222.865 395.616 224.401Z" fill="#EFB134"/>
<path d="M460.064 253.777H477.344C482.72 253.777 482.816 246.481 477.248 246.481H462.944V228.913H475.616C480.512 228.913 480.224 221.329 475.616 221.329H462.944C461.408 221.329 460.064 222.577 460.064 224.113C460.064 231.601 460.064 238.993 460.064 246.481V253.777ZM478.304 271.345C466.4 271.345 454.496 271.345 442.592 271.345V224.401C442.592 213.169 450.176 204.049 461.408 204.049H476C493.952 204.049 501.824 225.745 491.84 236.209C504.032 243.793 501.632 271.345 478.304 271.345Z" fill="#EFB134"/>
<path d="M524.64 224.401V234.289H543.264V251.857H524.64V271.345H507.072C507.072 255.793 507.072 240.049 507.072 224.401C507.072 213.169 516.192 204.049 527.424 204.049H543.264C554.496 204.049 563.616 213.169 563.616 224.401C563.616 236.401 563.616 259.345 563.616 271.345H546.048C546.048 259.345 546.048 236.401 546.048 224.401C546.048 222.865 544.8 221.617 543.264 221.617H527.424C525.888 221.617 524.64 222.865 524.64 224.401Z" fill="#EFB134"/>
<path d="M586.016 221.089H571.616V204.097H617.888V221.089H603.584V271.297H586.016V221.089Z" fill="#EFB134"/>
<path d="M673.6 271.345H646.24C635.008 271.345 625.888 262.225 625.888 250.993V224.401C625.888 213.169 635.008 204.049 646.24 204.049H673.6V221.617H646.24C644.704 221.617 643.456 222.865 643.456 224.401V228.913H673.6V246.481H643.456V250.993C643.456 252.529 644.704 253.777 646.24 253.777H673.6V271.345Z" fill="#EFB134"/>
<path d="M707.316 224.401V234.289V251.857V271.345H681.6V254.049H689.748C689.748 238.497 689.748 240.049 689.748 224.401C689.748 213.169 698.868 204.049 710.1 204.049H722.791C734.023 204.049 743.143 213.169 743.143 224.401C743.143 236.401 743.143 259.345 743.143 271.345H725.575C725.575 259.345 725.575 236.401 725.575 224.401C725.575 222.865 724.327 221.617 722.791 221.617H710.1C708.564 221.617 707.316 222.865 707.316 224.401Z" fill="#EFB134"/>
<path d="M786.92 214.896H771.315V232.465H786.92C788.442 232.465 789.679 233.713 789.679 235.249V250.994C789.679 252.53 788.442 253.778 786.92 253.778H771.315C769.793 253.778 768.556 252.53 768.556 250.994C768.556 235.345 768.556 219.696 768.556 204.047H751.143C751.143 219.696 751.143 235.345 751.143 250.994C751.143 262.227 760.183 271.347 771.315 271.347H786.92C798.052 271.347 807.092 262.227 807.092 250.994V235.249C807.092 224.016 798.052 214.896 786.92 214.896Z" fill="#EFB134"/>
<path d="M0 370.643C0 370.643 0 361.523 0 350.291V323.699C0 312.467 9.12 303.347 20.352 303.347H47.712V320.915H20.352C18.816 320.915 17.568 322.163 17.568 323.699V350.291C17.568 351.827 17.568 370.643 17.568 370.643H0Z" fill="#EFB134"/>
<path d="M112.256 323.747V350.243C112.256 361.475 103.136 370.595 91.904 370.595H76.064C64.832 370.595 55.712 361.475 55.712 350.243V323.747C55.712 312.515 64.832 303.395 76.064 303.395H91.904C103.136 303.395 112.256 312.515 112.256 323.747ZM94.688 350.243V323.747C94.688 322.211 93.44 320.963 91.904 320.963H76.064C74.528 320.963 73.28 322.211 73.28 323.747V350.243C73.28 351.779 74.528 353.027 76.064 353.027H91.904C93.44 353.027 94.688 351.779 94.688 350.243Z" fill="#EFB134"/>
<path d="M156.352 370.643C144.352 370.643 132.256 370.643 120.256 370.643V303.347C132.256 303.347 144.352 303.347 156.352 303.347C167.584 303.347 176.704 312.467 176.704 323.699V350.291C176.704 361.523 167.584 370.643 156.352 370.643ZM137.824 320.915V353.075H156.352C157.888 353.075 159.136 351.827 159.136 350.291V323.699C159.136 322.163 157.888 320.915 156.352 320.915H137.824Z" fill="#EFB134"/>
<path d="M202.272 323.699V333.587H220.896V351.155H202.272V370.643H184.704C184.704 355.091 184.704 339.347 184.704 323.699C184.704 312.467 193.824 303.347 205.056 303.347H220.896C232.128 303.347 241.248 312.467 241.248 323.699C241.248 335.699 241.248 358.643 241.248 370.643H223.68C223.68 358.643 223.68 335.699 223.68 323.699C223.68 322.163 222.432 320.915 220.896 320.915H205.056C203.52 320.915 202.272 322.163 202.272 323.699Z" fill="#EFB134"/>
<path d="M290.528 337.619L274.4 356.915L268.352 353.459L281.792 337.043L268.352 320.627L274.4 317.075L290.528 336.371L290.528 337.619ZM271.52 337.619L255.2 356.915L249.248 353.459L262.688 337.043L249.248 320.627L255.2 317.075L271.52 336.371L271.52 337.619Z" fill="#EFB134"/>
<path d="M314.528 303.347H333.344C345.344 303.347 353.6 312.755 349.664 325.235C346.784 334.547 344.192 343.955 341.312 353.171H358.592V370.643H323.936C319.904 370.643 318.848 368.531 319.616 364.883C323.744 351.251 328.064 338.003 332.288 324.467C332.768 322.739 332.096 320.915 329.984 320.915H314.528V303.347Z" fill="#EFB134"/>
<path d="M418.168 323.795V350.291C418.168 361.523 409.048 370.643 397.816 370.643H381.976C370.744 370.643 361.624 361.523 361.624 350.291V323.795C361.624 312.563 370.744 303.443 381.976 303.443H397.816C409.048 303.443 418.168 312.563 418.168 323.795ZM400.6 350.291V323.795C400.6 322.259 399.352 321.011 397.816 321.011H381.976C380.44 321.011 379.192 322.259 379.192 323.795V350.291C379.192 351.827 380.44 353.075 381.976 353.075H397.816C399.352 353.075 400.6 351.827 400.6 350.291Z" fill="#EFB134"/>
<path d="M421.068 303.347H439.884C451.884 303.347 460.14 312.755 456.204 325.235C453.324 334.547 450.732 343.955 447.852 353.171H465.132V370.643H430.476C426.444 370.643 425.388 368.531 426.156 364.883C430.284 351.251 434.604 338.003 438.828 324.467C439.308 322.739 438.636 320.915 436.524 320.915H421.068V303.347Z" fill="#EFB134"/>
<path d="M506.371 336.467C517.891 342.131 519.139 370.643 494.947 370.643H468.163V353.075H493.219C497.155 353.075 497.155 345.299 493.219 345.299H468.163V328.019H492.835C496.579 328.019 496.579 320.339 492.835 320.339H468.163V303.347H492.835C512.803 303.347 518.467 328.595 506.371 336.467Z" fill="#EFB134"/>
</svg>
