<svg width="314" height="1080" viewBox="0 0 314 1080" fill="none" xmlns="http://www.w3.org/2000/svg">
<g style="mix-blend-mode:soft-light">
<path d="M230.98 810.032C218.461 788.621 213.395 740.578 163.877 734.038C169.848 753.146 212.53 796.027 212.53 796.027C212.53 796.027 178.397 766.047 162.379 742.913C162.991 798.359 222.856 806.354 230.98 810.032Z" fill="#EFB134"/>
<path d="M153.382 947.576C149.46 934.134 145.34 907.733 116.582 903.159C119.556 915.655 137.897 930.187 137.897 930.187C137.897 930.187 122.486 922.393 115.644 906.03C116.882 938.124 146.599 938.889 153.382 947.576Z" fill="#EFB134"/>
<path d="M209.109 837.704C199.485 829.583 187.675 784.424 141.906 779.214C143.942 803.795 190.704 828.013 190.704 828.013C190.704 828.013 153.53 816.389 138.863 786.693C138.478 838.057 202.575 835.366 209.109 837.704Z" fill="#EFB134"/>
<path d="M50.4786 811.662C59.9425 807.217 80.5995 776.77 118.427 782.428C111.511 801.705 66.9154 806.828 66.9154 806.828C66.9154 806.828 101.115 809.745 119.26 789.08C108.531 830.358 64.9816 808.762 50.4786 811.662Z" fill="#EFB134"/>
<path d="M180.573 866.241C159.885 863.611 162.569 827.428 122.911 823.348C126.487 850.375 164.779 865.215 164.779 865.215C164.779 865.215 128.711 855.438 120.2 829.865C119.373 874.43 170.274 870.71 180.573 866.241Z" fill="#EFB134"/>
<path d="M59.9622 899.795C74.9021 897.493 72.2652 871.326 100.924 867.611C98.8497 887.264 71.387 898.75 71.387 898.75C71.387 898.75 97.335 890.975 103.013 872.281C104.465 904.558 67.5105 902.836 59.9622 899.795Z" fill="#EFB134"/>
<path d="M158.79 901.56C154.327 897.097 143.516 873.128 115.445 867.555C119.801 886.74 140.653 891.434 140.653 891.434C140.653 891.434 121.706 890.44 113.991 871.936C116.461 903.111 152.635 897.302 158.79 901.56Z" fill="#EFB134"/>
<path d="M49.778 852.694C55.79 849.223 73.9455 826.564 105.624 829.093C95.7084 848.541 72.026 847.262 72.026 847.262C72.026 847.262 92.6521 851.967 105.99 834.282C94.828 867.288 57.5522 849.961 49.778 852.694Z" fill="#EFB134"/>
<path d="M74.1189 765.714C81.0252 761.726 101.668 735.326 138.424 738.865C127.275 761.623 99.8067 759.7 99.8067 759.7C99.8067 759.7 123.793 765.609 138.939 744.99C126.583 783.714 83.0804 762.628 74.1189 765.714Z" fill="#EFB134"/>
<path d="M160.702 688.87L149.583 699.989C171.337 754.617 82.3853 806.828 115.259 905.449C88.1865 812.629 175.688 753.167 160.702 688.87Z" fill="#EFB134"/>
<path d="M160.702 688.87L149.583 699.989C171.337 754.617 82.3853 806.828 115.259 905.449C88.1865 812.629 175.688 753.167 160.702 688.87Z" fill="#EFB134"/>
</g>
<g style="mix-blend-mode:soft-light">
<path d="M146.526 974.214C157.94 993.735 162.559 1037.54 207.707 1043.5C202.263 1026.08 163.348 986.982 163.348 986.982C163.348 986.982 194.468 1014.32 209.074 1035.41C208.515 984.857 153.933 977.567 146.526 974.214Z" fill="#EFB134"/>
<path d="M217.277 848.806C220.852 861.062 224.609 885.133 250.83 889.303C248.118 877.91 231.395 864.66 231.395 864.66C231.395 864.66 245.447 871.766 251.685 886.686C250.556 857.424 223.461 856.726 217.277 848.806Z" fill="#EFB134"/>
<path d="M166.467 948.983C175.242 956.387 186.01 997.562 227.741 1002.31C225.884 979.9 183.248 957.819 183.248 957.819C183.248 957.819 217.142 968.418 230.514 995.493C230.866 948.662 172.425 951.115 166.467 948.983Z" fill="#EFB134"/>
<path d="M311.1 972.727C302.472 976.78 283.637 1004.54 249.147 999.382C255.453 981.806 296.114 977.135 296.114 977.135C296.114 977.135 264.932 974.475 248.388 993.317C258.17 955.681 297.877 975.372 311.1 972.727Z" fill="#EFB134"/>
<path d="M192.485 922.965C211.347 925.362 208.9 958.353 245.059 962.073C241.799 937.43 206.886 923.899 206.886 923.899C206.886 923.899 239.771 932.814 247.531 956.131C248.285 915.498 201.876 918.889 192.485 922.965Z" fill="#EFB134"/>
<path d="M302.454 892.371C288.832 894.469 291.236 918.328 265.107 921.715C266.997 903.796 292.037 893.324 292.037 893.324C292.037 893.324 268.378 900.413 263.202 917.457C261.878 888.028 295.571 889.598 302.454 892.371Z" fill="#EFB134"/>
<path d="M212.346 890.762C216.415 894.83 226.272 916.685 251.866 921.767C247.895 904.274 228.883 899.994 228.883 899.994C228.883 899.994 246.158 900.9 253.192 917.771C250.94 889.348 217.958 894.644 212.346 890.762Z" fill="#EFB134"/>
<path d="M311.739 935.316C306.258 938.481 289.704 959.14 260.821 956.834C269.861 939.102 291.454 940.268 291.454 940.268C291.454 940.268 272.648 935.979 260.487 952.103C270.664 922.01 304.651 937.808 311.739 935.316Z" fill="#EFB134"/>
<path d="M289.546 1014.62C283.249 1018.26 264.428 1042.33 230.915 1039.1C241.08 1018.35 266.125 1020.1 266.125 1020.1C266.125 1020.1 244.255 1014.72 230.445 1033.52C241.711 998.21 281.375 1017.44 289.546 1014.62Z" fill="#EFB134"/>
<path d="M210.603 1084.69L220.741 1074.55C200.906 1024.74 282.009 977.135 252.036 887.216C276.72 971.846 196.939 1026.06 210.603 1084.69Z" fill="#EFB134"/>
<path d="M210.603 1084.69L220.741 1074.55C200.906 1024.74 282.009 977.135 252.036 887.216C276.72 971.846 196.939 1026.06 210.603 1084.69Z" fill="#EFB134"/>
</g>
<g style="mix-blend-mode:soft-light">
<path d="M230.98 440.032C218.461 418.621 213.395 370.578 163.877 364.038C169.848 383.146 212.53 426.027 212.53 426.027C212.53 426.027 178.397 396.047 162.379 372.913C162.991 428.359 222.856 436.354 230.98 440.032Z" fill="#EFB134"/>
<path d="M153.382 577.576C149.46 564.134 145.34 537.733 116.582 533.159C119.556 545.655 137.897 560.187 137.897 560.187C137.897 560.187 122.486 552.393 115.644 536.03C116.882 568.124 146.599 568.889 153.382 577.576Z" fill="#EFB134"/>
<path d="M209.109 467.704C199.485 459.583 187.675 414.424 141.906 409.214C143.942 433.795 190.704 458.013 190.704 458.013C190.704 458.013 153.53 446.389 138.863 416.693C138.478 468.057 202.575 465.366 209.109 467.704Z" fill="#EFB134"/>
<path d="M50.4786 441.662C59.9425 437.217 80.5995 406.77 118.427 412.428C111.511 431.705 66.9154 436.828 66.9154 436.828C66.9154 436.828 101.115 439.745 119.26 419.08C108.531 460.358 64.9816 438.762 50.4786 441.662Z" fill="#EFB134"/>
<path d="M180.573 496.241C159.885 493.611 162.569 457.428 122.911 453.348C126.487 480.375 164.779 495.215 164.779 495.215C164.779 495.215 128.711 485.438 120.2 459.865C119.373 504.43 170.274 500.71 180.573 496.241Z" fill="#EFB134"/>
<path d="M59.9622 529.795C74.9021 527.493 72.2652 501.326 100.924 497.611C98.8497 517.264 71.387 528.75 71.387 528.75C71.387 528.75 97.335 520.975 103.013 502.281C104.465 534.558 67.5105 532.836 59.9622 529.795Z" fill="#EFB134"/>
<path d="M158.79 531.56C154.327 527.097 143.516 503.128 115.445 497.555C119.801 516.74 140.653 521.434 140.653 521.434C140.653 521.434 121.706 520.44 113.991 501.936C116.461 533.111 152.635 527.302 158.79 531.56Z" fill="#EFB134"/>
<path d="M49.778 482.694C55.79 479.223 73.9455 456.564 105.624 459.093C95.7084 478.541 72.026 477.262 72.026 477.262C72.026 477.262 92.6521 481.967 105.99 464.282C94.828 497.288 57.5522 479.961 49.778 482.694Z" fill="#EFB134"/>
<path d="M74.1189 395.714C81.0252 391.726 101.668 365.326 138.424 368.865C127.275 391.623 99.8067 389.7 99.8067 389.7C99.8067 389.7 123.793 395.609 138.939 374.99C126.583 413.714 83.0804 392.628 74.1189 395.714Z" fill="#EFB134"/>
<path d="M160.702 318.87L149.583 329.989C171.337 384.617 82.3853 436.828 115.259 535.449C88.1865 442.629 175.688 383.167 160.702 318.87Z" fill="#EFB134"/>
<path d="M160.702 318.87L149.583 329.989C171.337 384.617 82.3853 436.828 115.259 535.449C88.1865 442.629 175.688 383.167 160.702 318.87Z" fill="#EFB134"/>
</g>
<g style="mix-blend-mode:soft-light">
<path d="M146.526 604.214C157.94 623.735 162.559 667.539 207.707 673.503C202.263 656.08 163.348 616.982 163.348 616.982C163.348 616.982 194.468 644.317 209.074 665.411C208.515 614.857 153.933 607.567 146.526 604.214Z" fill="#EFB134"/>
<path d="M217.277 478.806C220.852 491.062 224.609 515.133 250.83 519.303C248.118 507.91 231.395 494.66 231.395 494.66C231.395 494.66 245.447 501.766 251.685 516.686C250.556 487.424 223.461 486.726 217.277 478.806Z" fill="#EFB134"/>
<path d="M166.467 578.983C175.242 586.387 186.01 627.562 227.741 632.312C225.884 609.9 183.248 587.819 183.248 587.819C183.248 587.819 217.142 598.418 230.514 625.493C230.866 578.662 172.425 581.115 166.467 578.983Z" fill="#EFB134"/>
<path d="M311.1 602.727C302.472 606.78 283.637 634.541 249.147 629.382C255.453 611.806 296.114 607.135 296.114 607.135C296.114 607.135 264.932 604.475 248.388 623.317C258.17 585.681 297.877 605.372 311.1 602.727Z" fill="#EFB134"/>
<path d="M192.485 552.965C211.347 555.362 208.9 588.353 245.059 592.073C241.799 567.43 206.886 553.899 206.886 553.899C206.886 553.899 239.771 562.814 247.531 586.131C248.285 545.498 201.876 548.889 192.485 552.965Z" fill="#EFB134"/>
<path d="M302.454 522.371C288.832 524.469 291.236 548.328 265.107 551.715C266.997 533.796 292.037 523.324 292.037 523.324C292.037 523.324 268.378 530.413 263.202 547.457C261.878 518.028 295.571 519.598 302.454 522.371Z" fill="#EFB134"/>
<path d="M212.346 520.762C216.415 524.83 226.272 546.685 251.866 551.767C247.895 534.274 228.883 529.994 228.883 529.994C228.883 529.994 246.158 530.9 253.192 547.771C250.94 519.348 217.958 524.644 212.346 520.762Z" fill="#EFB134"/>
<path d="M311.739 565.316C306.258 568.481 289.704 589.14 260.821 586.834C269.861 569.102 291.454 570.268 291.454 570.268C291.454 570.268 272.648 565.979 260.487 582.103C270.664 552.01 304.651 567.808 311.739 565.316Z" fill="#EFB134"/>
<path d="M289.546 644.622C283.249 648.257 264.428 672.328 230.915 669.101C241.08 648.351 266.125 650.105 266.125 650.105C266.125 650.105 244.255 644.717 230.445 663.517C241.711 628.21 281.375 647.435 289.546 644.622Z" fill="#EFB134"/>
<path d="M210.603 714.685L220.741 704.547C200.906 654.739 282.009 607.135 252.036 517.216C276.72 601.846 196.939 656.062 210.603 714.685Z" fill="#EFB134"/>
<path d="M210.603 714.685L220.741 704.547C200.906 654.739 282.009 607.135 252.036 517.216C276.72 601.846 196.939 656.062 210.603 714.685Z" fill="#EFB134"/>
</g>
<g style="mix-blend-mode:soft-light">
<path d="M230.98 70.0319C218.461 48.6208 213.395 0.578062 163.877 -5.96251C169.848 13.1456 212.53 56.0274 212.53 56.0274C212.53 56.0274 178.397 26.0473 162.379 2.91246C162.991 58.3585 222.856 66.354 230.98 70.0319Z" fill="#EFB134"/>
<path d="M153.382 207.576C149.46 194.134 145.34 167.733 116.582 163.159C119.556 175.655 137.897 190.187 137.897 190.187C137.897 190.187 122.486 182.393 115.644 166.03C116.882 198.124 146.599 198.889 153.382 207.576Z" fill="#EFB134"/>
<path d="M209.109 97.7043C199.485 89.5833 187.675 44.4235 141.906 39.2143C143.942 63.7949 190.704 88.0129 190.704 88.0129C190.704 88.0129 153.53 76.3884 138.863 46.6927C138.478 98.0566 202.575 95.366 209.109 97.7043Z" fill="#EFB134"/>
<path d="M50.4786 71.6621C59.9425 67.217 80.5995 36.7701 118.427 42.4282C111.511 61.7049 66.9154 66.8277 66.9154 66.8277C66.9154 66.8277 101.115 69.7449 119.26 49.0798C108.531 90.3582 64.9816 68.7615 50.4786 71.6621Z" fill="#EFB134"/>
<path d="M180.573 126.24C159.885 123.611 162.569 87.4277 122.911 83.3475C126.487 110.375 164.779 125.215 164.779 125.215C164.779 125.215 128.711 115.438 120.2 89.8647C119.373 134.43 170.274 130.71 180.573 126.24Z" fill="#EFB134"/>
<path d="M59.9622 159.795C74.9021 157.493 72.2652 131.326 100.924 127.611C98.8497 147.264 71.387 158.75 71.387 158.75C71.387 158.75 97.335 150.975 103.013 132.281C104.465 164.558 67.5105 162.836 59.9622 159.795Z" fill="#EFB134"/>
<path d="M158.79 161.56C154.327 157.097 143.516 133.128 115.445 127.554C119.801 146.74 140.653 151.434 140.653 151.434C140.653 151.434 121.706 150.44 113.991 131.936C116.461 163.111 152.635 157.302 158.79 161.56Z" fill="#EFB134"/>
<path d="M49.778 112.693C55.79 109.222 73.9455 86.5637 105.624 89.0931C95.7084 108.541 72.026 107.262 72.026 107.262C72.026 107.262 92.6521 111.967 105.99 94.2817C94.828 127.288 57.5522 109.961 49.778 112.693Z" fill="#EFB134"/>
<path d="M74.1189 25.7134C81.0252 21.7261 101.668 -4.67373 138.424 -1.13506C127.275 21.6232 99.8067 19.6995 99.8067 19.6995C99.8067 19.6995 123.793 25.609 138.939 4.98965C126.583 43.7136 83.0804 22.6276 74.1189 25.7134Z" fill="#EFB134"/>
<path d="M160.702 -51.1306L149.583 -40.0116C171.337 14.6168 82.3853 66.8278 115.259 165.449C88.1865 72.629 175.688 13.1665 160.702 -51.1306Z" fill="#EFB134"/>
<path d="M160.702 -51.1306L149.583 -40.0116C171.337 14.6168 82.3853 66.8278 115.259 165.449C88.1865 72.629 175.688 13.1665 160.702 -51.1306Z" fill="#EFB134"/>
</g>
<g style="mix-blend-mode:soft-light">
<path d="M146.526 234.214C157.94 253.735 162.559 297.539 207.707 303.503C202.263 286.08 163.348 246.982 163.348 246.982C163.348 246.982 194.468 274.317 209.074 295.411C208.515 244.857 153.933 237.567 146.526 234.214Z" fill="#EFB134"/>
<path d="M217.277 108.806C220.852 121.062 224.609 145.133 250.83 149.303C248.118 137.91 231.395 124.66 231.395 124.66C231.395 124.66 245.447 131.766 251.685 146.686C250.556 117.423 223.461 116.726 217.277 108.806Z" fill="#EFB134"/>
<path d="M166.467 208.983C175.242 216.387 186.01 257.562 227.741 262.312C225.884 239.9 183.248 217.819 183.248 217.819C183.248 217.819 217.142 228.418 230.514 255.493C230.866 208.662 172.425 211.115 166.467 208.983Z" fill="#EFB134"/>
<path d="M311.1 232.727C302.472 236.78 283.637 264.54 249.147 259.382C255.453 241.806 296.114 237.135 296.114 237.135C296.114 237.135 264.932 234.475 248.388 253.317C258.17 215.681 297.877 235.372 311.1 232.727Z" fill="#EFB134"/>
<path d="M192.485 182.965C211.347 185.362 208.9 218.353 245.059 222.073C241.799 197.43 206.886 183.899 206.886 183.899C206.886 183.899 239.771 192.814 247.531 216.131C248.285 175.498 201.876 178.889 192.485 182.965Z" fill="#EFB134"/>
<path d="M302.454 152.371C288.832 154.469 291.236 178.328 265.107 181.715C266.997 163.796 292.037 153.324 292.037 153.324C292.037 153.324 268.378 160.413 263.202 177.457C261.878 148.028 295.571 149.598 302.454 152.371Z" fill="#EFB134"/>
<path d="M212.346 150.762C216.415 154.83 226.272 176.685 251.866 181.766C247.895 164.274 228.883 159.994 228.883 159.994C228.883 159.994 246.158 160.9 253.192 177.771C250.94 149.348 217.958 154.644 212.346 150.762Z" fill="#EFB134"/>
<path d="M311.739 195.316C306.258 198.481 289.704 219.14 260.821 216.834C269.861 199.102 291.454 200.268 291.454 200.268C291.454 200.268 272.648 195.979 260.487 212.103C270.664 182.01 304.651 197.808 311.739 195.316Z" fill="#EFB134"/>
<path d="M289.546 274.622C283.249 278.257 264.428 302.327 230.915 299.101C241.08 278.351 266.125 280.105 266.125 280.105C266.125 280.105 244.255 274.717 230.445 293.517C241.711 258.21 281.375 277.435 289.546 274.622Z" fill="#EFB134"/>
<path d="M210.603 344.685L220.741 334.547C200.906 284.739 282.009 237.135 252.036 147.216C276.72 231.846 196.939 286.061 210.603 344.685Z" fill="#EFB134"/>
<path d="M210.603 344.685L220.741 334.547C200.906 284.739 282.009 237.135 252.036 147.216C276.72 231.846 196.939 286.061 210.603 344.685Z" fill="#EFB134"/>
</g>
</svg>
