<svg width="644" height="71" viewBox="0 0 644 71" fill="none" xmlns="http://www.w3.org/2000/svg">
<path d="M0 68.6598C0 68.6598 0 59.5398 0 48.3078V21.7158C0 10.4838 9.12 1.36376 20.352 1.36376H47.712V18.9318H20.352C18.816 18.9318 17.568 20.1798 17.568 21.7158V48.3078C17.568 49.8438 17.568 68.6598 17.568 68.6598H0Z" fill="#EFB134"/>
<path d="M108.256 21.7638V48.2598C108.256 59.4918 99.1359 68.6118 87.9039 68.6118H72.0639C60.8319 68.6118 51.7119 59.4918 51.7119 48.2598V21.7638C51.7119 10.5318 60.8319 1.41176 72.0639 1.41176H87.9039C99.1359 1.41176 108.256 10.5318 108.256 21.7638ZM90.6879 48.2598V21.7638C90.6879 20.2278 89.4399 18.9798 87.9039 18.9798H72.0639C70.5279 18.9798 69.2799 20.2278 69.2799 21.7638V48.2598C69.2799 49.7958 70.5279 51.0438 72.0639 51.0438H87.9039C89.4399 51.0438 90.6879 49.7958 90.6879 48.2598Z" fill="#EFB134"/>
<path d="M137.972 21.7158V31.6038V49.1718V68.6598H112.256V51.3638H120.404C120.404 35.8118 120.404 37.3638 120.404 21.7158C120.404 10.4838 129.524 1.36376 140.756 1.36376H153.448C164.68 1.36376 173.8 10.4838 173.8 21.7158C173.8 33.7158 173.8 56.6598 173.8 68.6598H156.232C156.232 56.6598 156.232 33.7158 156.232 21.7158C156.232 20.1798 154.984 18.9318 153.448 18.9318H140.756C139.22 18.9318 137.972 20.1798 137.972 21.7158Z" fill="#EFB134"/>
<path d="M234.344 21.7638V48.2598C234.344 59.4918 225.224 68.6118 213.992 68.6118H198.152C186.92 68.6118 177.8 59.4918 177.8 48.2598V21.7638C177.8 10.5318 186.92 1.41176 198.152 1.41176H213.992C225.224 1.41176 234.344 10.5318 234.344 21.7638ZM216.776 48.2598V21.7638C216.776 20.2278 215.528 18.9798 213.992 18.9798H198.152C196.616 18.9798 195.368 20.2278 195.368 21.7638V48.2598C195.368 49.7958 196.616 51.0438 198.152 51.0438H213.992C215.528 51.0438 216.776 49.7958 216.776 48.2598Z" fill="#EFB134"/>
<path d="M286.056 68.6598H258.696C247.464 68.6598 238.344 59.5398 238.344 48.3078V21.7158C238.344 10.4838 247.464 1.36376 258.696 1.36376H286.056V18.9318H258.696C257.16 18.9318 255.912 20.1798 255.912 21.7158V48.3078C255.912 49.8438 257.16 51.0918 258.696 51.0918H286.056V68.6598Z" fill="#EFB134"/>
<path d="M346.6 21.7638V48.2598C346.6 59.4918 337.48 68.6118 326.248 68.6118H310.408C299.176 68.6118 290.056 59.4918 290.056 48.2598V21.7638C290.056 10.5318 299.176 1.41176 310.408 1.41176H326.248C337.48 1.41176 346.6 10.5318 346.6 21.7638ZM329.032 48.2598V21.7638C329.032 20.2278 327.784 18.9798 326.248 18.9798H310.408C308.872 18.9798 307.624 20.2278 307.624 21.7638V48.2598C307.624 49.7958 308.872 51.0438 310.408 51.0438H326.248C327.784 51.0438 329.032 49.7958 329.032 48.2598Z" fill="#EFB134"/>
<path d="M368.072 51.0918H385.352C390.728 51.0918 390.824 43.7958 385.256 43.7958H370.952V26.2278H383.624C388.52 26.2278 388.232 18.6438 383.624 18.6438H370.952C369.416 18.6438 368.072 19.8918 368.072 21.4278C368.072 28.9158 368.072 36.3078 368.072 43.7958V51.0918ZM386.312 68.6598C374.408 68.6598 362.504 68.6598 350.6 68.6598V21.7158C350.6 10.4838 358.184 1.36376 369.416 1.36376H384.008C401.96 1.36376 409.832 23.0598 399.848 33.5238C412.04 41.1078 409.64 68.6598 386.312 68.6598Z" fill="#EFB134"/>
<path d="M428.647 21.7158V31.6038H447.271V49.1718H428.647V68.6598H411.079C411.079 53.1078 411.079 37.3638 411.079 21.7158C411.079 10.4838 420.199 1.36376 431.431 1.36376H447.271C458.503 1.36376 467.623 10.4838 467.623 21.7158C467.623 33.7158 467.623 56.6598 467.623 68.6598H450.055C450.055 56.6598 450.055 33.7158 450.055 21.7158C450.055 20.1798 448.807 18.9318 447.271 18.9318H431.431C429.895 18.9318 428.647 20.1798 428.647 21.7158Z" fill="#EFB134"/>
<path d="M510.599 1.36376H528.167V68.6598H510.599V1.36376ZM471.623 1.36376H489.191V26.2278H507.815V43.7958H489.191V68.6598H471.623V1.36376Z" fill="#EFB134"/>
<path d="M549.736 1.49492H532.167C532.167 18.5042 532.167 35.994 532.167 53.0034C532.167 70.7815 550.983 74.241 561.351 65.2078C564.135 62.7092 566.248 59.0575 567.304 53.4839C569.128 44.4507 570.855 34.1682 572.68 25.135L574.216 14.2759L575.176 14.372L574.12 25.5194V68.8595H591.688C591.688 51.8502 591.688 34.0721 591.688 17.0628C591.688 -0.71533 572.872 -4.27095 562.6 4.85835C559.816 7.26079 557.704 11.0086 556.552 16.5823C554.728 25.5194 553 35.8979 551.176 44.835L549.639 55.7902L548.776 55.6941L549.736 43.0092V1.49492Z" fill="#EFB134"/>
<path d="M643.4 68.6598H616.04C604.808 68.6598 595.688 59.5398 595.688 48.3078V21.7158C595.688 10.4838 604.808 1.36376 616.04 1.36376H643.4V18.9318H616.04C614.504 18.9318 613.256 20.1798 613.256 21.7158V26.2278H643.4V43.7958H613.256V48.3078C613.256 49.8438 614.504 51.0918 616.04 51.0918H643.4V68.6598Z" fill="#EFB134"/>
</svg>
