<?xml version="1.0" encoding="UTF-8" standalone="no"?>
<!-- Created with Inkscape (http://www.inkscape.org/) -->

<svg
   version="1.1"
   id="svg2"
   width="755.90533"
   height="755.90533"
   viewBox="0 0 755.90533 755.90533"
   sodipodi:docname="Звезда.ai"
   xmlns:inkscape="http://www.inkscape.org/namespaces/inkscape"
   xmlns:sodipodi="http://sodipodi.sourceforge.net/DTD/sodipodi-0.dtd"
   xmlns="http://www.w3.org/2000/svg"
   xmlns:svg="http://www.w3.org/2000/svg">
  <defs
     id="defs6">
    <clipPath
       clipPathUnits="userSpaceOnUse"
       id="clipPath16">
      <path
         d="M 0,566.929 H 566.929 V 0 H 0 Z"
         id="path14" />
    </clipPath>
  </defs>
  <sodipodi:namedview
     id="namedview4"
     pagecolor="#ffffff"
     bordercolor="#000000"
     borderopacity="0.25"
     inkscape:showpageshadow="2"
     inkscape:pageopacity="0.0"
     inkscape:pagecheckerboard="0"
     inkscape:deskcolor="#d1d1d1" />
  <g
     id="g8"
     inkscape:groupmode="layer"
     inkscape:label="Звезда"
     transform="matrix(1.3333333,0,0,-1.3333333,0,755.90533)">
    <g
       id="g10">
      <g
         id="g12"
         clip-path="url(#clipPath16)">
        <g
           id="g18"
           transform="translate(432.4024,346.0373)">
          <path
             d="M 0,0 C -24.746,17.466 -44.963,35.262 -61.037,51.216 -61.408,50.913 -61.902,50.505 -62.38,50.11 -78.205,35.079 -93.933,20.935 -105.596,4.304 -115.378,-9.645 -123.1,-24.622 -123.1,-24.622 c -4.277,-8.298 -7.233,-15.208 -8.794,-18.983 -11.878,-28.732 -18.561,-60.104 -19.047,-92.944 -0.017,-1.911 -0.037,-3.64 -0.058,-4.32 -0.002,-0.061 -0.017,-0.338 -0.012,-0.713 0.006,-0.443 0.031,-0.882 0.034,-1.326 0.022,-4.308 0.161,-8.588 0.397,-12.842 0.117,-2.078 0.304,-4.136 0.471,-6.199 0.211,-2.64 0.442,-5.273 0.734,-7.888 0.265,-2.365 0.568,-4.717 0.897,-7.061 0.317,-2.267 0.676,-4.52 1.053,-6.767 0.416,-2.47 0.832,-4.939 1.319,-7.385 0.406,-2.044 0.88,-4.063 1.335,-6.089 2.066,-9.188 4.625,-18.185 7.658,-26.966 0.653,-1.889 1.288,-3.786 1.984,-5.655 0.87,-2.337 1.802,-4.642 2.738,-6.946 0.812,-1.994 1.637,-3.98 2.498,-5.948 0.941,-2.156 1.905,-4.299 2.904,-6.424 1.031,-2.189 2.109,-4.35 3.2,-6.505 0.936,-1.85 1.855,-3.71 2.835,-5.534 1.759,-3.27 3.596,-6.492 5.494,-9.674 0.394,-0.663 0.754,-1.349 1.154,-2.008 2.403,-3.946 4.924,-7.811 7.532,-11.612 0.579,-0.845 1.192,-1.665 1.78,-2.503 2.173,-3.085 4.396,-6.131 6.702,-9.113 0.587,-0.761 1.186,-1.513 1.781,-2.267 2.565,-3.24 5.194,-6.428 7.911,-9.537 0.299,-0.343 0.593,-0.69 0.893,-1.031 12.222,-13.835 25.973,-26.273 40.92,-37.169 -27.844,24.519 -49.289,56.065 -61.619,91.887 -0.041,0.117 -0.08,0.236 -0.12,0.354 -1.123,3.278 -2.17,6.589 -3.137,9.936 -0.239,0.822 -0.466,1.647 -0.696,2.473 -0.727,2.636 -1.411,5.288 -2.04,7.963 -0.351,1.479 -0.682,2.964 -1.003,4.454 -0.432,2.028 -0.836,4.065 -1.21,6.113 -0.388,2.099 -0.746,4.205 -1.074,6.324 -0.219,1.441 -0.419,2.886 -0.61,4.336 -0.36,2.697 -0.677,5.406 -0.937,8.135 -0.081,0.864 -0.149,1.732 -0.219,2.599 -0.273,3.281 -0.481,6.579 -0.606,9.9 -0.004,0.111 -0.016,0.22 -0.02,0.332 l 0.012,-0.018 c -0.096,2.638 -0.222,5.268 -0.222,7.929 0,10.923 0.824,34.809 9.197,62.557 15.256,50.559 46.423,83.616 63.772,99.462 8.421,-4.129 17.925,-8.082 28.499,-11.427 34.74,-10.987 66.201,-10.711 88.61,-8.155 C 49.096,-31.006 25.165,-17.761 0,0"
             style="fill:#efb134;fill-opacity:1;fill-rule:nonzero;stroke:none"
             id="path20" />
        </g>
        <g
           id="g22"
           transform="translate(322.6783,463.7738)">
          <path
             d="m 0,0 c -18.697,-18.57 -56.657,-61.541 -65.76,-121.929 -4.455,-29.556 -1.253,-58.345 -0.33,-66.252 3.145,-26.923 9.775,-48.941 15.696,-64.709 3.593,46.434 11.963,81.973 19.413,99.993 4.022,9.727 8.793,18.982 8.793,18.982 0,0 7.723,14.977 17.505,28.926 21.373,30.478 56.388,52.581 80.659,87.151 8.277,11.789 19.198,30.576 26.468,58.063 C 92.426,31.816 76.752,20.596 55.333,12.059 33.095,3.196 13.299,0.666 0,0"
             style="fill:#efb134;fill-opacity:1;fill-rule:nonzero;stroke:none"
             id="path24" />
        </g>
        <g
           id="g26"
           transform="translate(313.3497,472.3939)">
          <path
             d="m 0,0 c 0.031,0.002 0.067,0.005 0.097,0.007 -8.002,12.383 -16.176,26.169 -24.116,41.543 -9.747,18.871 -17.444,36.744 -23.554,52.985 -1.801,-47.474 -3.602,-94.949 -5.402,-142.423 -0.041,-0.021 -0.087,-0.042 -0.128,-0.063 0.047,-0.234 0.089,-0.489 0.136,-0.722 -19.179,-9.666 -44.794,-20.117 -76.099,-26.679 -49.593,-10.396 -91.929,-6.522 -119.547,-1.564 26.719,-12.959 63.206,-27.095 108.193,-34.746 28.469,-4.841 54.137,-6.028 75.789,-5.568 C -52.119,-52.334 -13.398,-12.605 0,0"
             style="fill:#efb134;fill-opacity:1;fill-rule:nonzero;stroke:none"
             id="path28" />
        </g>
        <g
           id="g30"
           transform="translate(345.0452,91.4317)">
          <path
             d="m 0,0 c -4.772,5.253 -9.254,10.488 -13.517,15.686 0.216,-0.818 0.406,-1.647 0.631,-2.462 0.229,-0.825 0.456,-1.651 0.696,-2.472 0.967,-3.348 2.014,-6.658 3.136,-9.937 0.041,-0.117 0.08,-0.236 0.121,-0.354 12.248,-35.584 33.506,-66.932 61.081,-91.381 0.177,-0.171 0.354,-0.341 0.531,-0.512 22.482,0.002 44.964,0.004 67.445,0.007 C 86.255,-74.131 41.59,-45.784 0,0"
             style="fill:#efb134;fill-opacity:1;fill-rule:nonzero;stroke:none"
             id="path32" />
        </g>
      </g>
    </g>
  </g>
</svg>
