<svg width="174" height="226" viewBox="0 0 174 226" fill="none" xmlns="http://www.w3.org/2000/svg">
<path d="M146.02 87.9642C136.199 81.0324 128.175 73.9696 121.796 67.6378C121.649 67.7581 121.452 67.92 121.263 68.0768C114.982 74.0422 108.74 79.6556 104.111 86.2561C100.229 91.7921 97.1645 97.7361 97.1645 97.7361C95.4671 101.029 94.2939 103.772 93.6744 105.27C88.9603 116.673 86.308 129.124 86.1151 142.157C86.1084 142.916 86.1004 143.602 86.0921 143.872C86.0913 143.896 86.0853 144.006 86.0873 144.155C86.0897 144.33 86.0996 144.505 86.1008 144.681C86.1095 146.391 86.1647 148.089 86.2584 149.777C86.3048 150.602 86.379 151.419 86.4453 152.238C86.529 153.285 86.6207 154.33 86.7366 155.368C86.8418 156.307 86.962 157.24 87.0926 158.171C87.2184 159.07 87.3609 159.964 87.5105 160.856C87.6756 161.837 87.8407 162.816 88.034 163.787C88.1951 164.598 88.3832 165.4 88.5638 166.204C89.3838 169.85 90.3994 173.421 91.6031 176.906C91.8622 177.656 92.1143 178.408 92.3905 179.15C92.7358 180.078 93.1057 180.993 93.4771 181.907C93.7994 182.698 94.1268 183.486 94.4685 184.268C94.842 185.123 95.2246 185.974 95.6211 186.817C96.0302 187.686 96.4581 188.543 96.8911 189.399C97.2625 190.133 97.6273 190.871 98.0162 191.595C98.7143 192.893 99.4434 194.172 100.197 195.434C100.353 195.698 100.496 195.97 100.655 196.231C101.608 197.797 102.609 199.331 103.644 200.84C103.874 201.175 104.117 201.501 104.35 201.833C105.213 203.058 106.095 204.266 107.01 205.45C107.243 205.752 107.481 206.05 107.717 206.35C108.735 207.636 109.778 208.901 110.857 210.135C110.975 210.271 111.092 210.409 111.211 210.544C116.062 216.035 121.519 220.971 127.451 225.295C116.401 215.564 107.89 203.044 102.996 188.828C102.98 188.781 102.964 188.734 102.949 188.687C102.503 187.386 102.087 186.072 101.704 184.744C101.609 184.418 101.519 184.09 101.427 183.762C101.139 182.716 100.867 181.664 100.618 180.602C100.478 180.015 100.347 179.426 100.22 178.834C100.048 178.029 99.8879 177.221 99.7394 176.408C99.5854 175.575 99.4434 174.739 99.3132 173.898C99.2263 173.326 99.1469 172.753 99.0711 172.178C98.9282 171.107 98.8024 170.032 98.6992 168.949C98.6671 168.606 98.6401 168.262 98.6123 167.917C98.5039 166.615 98.4214 165.306 98.3718 163.988C98.3702 163.944 98.3654 163.901 98.3639 163.857L98.3686 163.864C98.3305 162.817 98.2805 161.773 98.2805 160.717C98.2805 156.382 98.6075 146.902 101.931 135.89C107.985 115.824 120.355 102.705 127.24 96.4157C130.582 98.0544 134.354 99.6232 138.551 100.951C152.338 105.311 164.824 105.202 173.718 104.187C165.505 100.27 156.007 95.0131 146.02 87.9642Z" fill="#EFB134"/>
<path d="M102.473 41.2375C95.0527 48.6075 79.9873 65.6616 76.3746 89.6281C74.6065 101.358 75.8773 112.784 76.2436 115.922C77.4918 126.607 80.123 135.345 82.4729 141.603C83.8989 123.175 87.2207 109.07 90.1775 101.919C91.7737 98.0581 93.6672 94.3851 93.6672 94.3851C93.6672 94.3851 96.7323 88.4411 100.614 82.905C109.097 70.8091 122.993 62.037 132.626 48.317C135.911 43.6382 140.245 36.1821 143.131 25.2732C139.155 28.6106 132.934 33.0635 124.433 36.4516C115.608 39.9691 107.751 40.9732 102.473 41.2375Z" fill="#EFB134"/>
<path d="M98.7707 37.8164C98.783 37.8156 98.7973 37.8145 98.8092 37.8137C95.6334 32.8992 92.3894 27.4278 89.2382 21.3263C85.3698 13.8369 82.3151 6.74351 79.8902 0.297862C79.1754 19.1391 78.4606 37.9808 77.7463 56.822C77.73 56.8303 77.7117 56.8387 77.6955 56.847C77.7141 56.9399 77.7308 57.0411 77.7494 57.1335C70.1378 60.9697 59.9718 65.1175 47.5477 67.7218C27.8654 71.8477 11.0633 70.3102 0.102417 68.3425C10.7065 73.4856 25.1873 79.0958 43.0415 82.1323C54.3402 84.0536 64.5272 84.5247 73.1203 84.3421C78.086 58.5865 93.4534 42.8191 98.7707 37.8164Z" fill="#EFB134"/>
<path d="M111.35 189.011C109.456 186.926 107.677 184.848 105.985 182.786C106.071 183.11 106.146 183.439 106.236 183.763C106.327 184.09 106.417 184.418 106.512 184.744C106.896 186.072 107.311 187.386 107.757 188.687C107.773 188.734 107.788 188.781 107.805 188.828C112.666 202.95 121.102 215.392 132.046 225.095C132.116 225.163 132.187 225.23 132.257 225.298C141.179 225.297 150.102 225.296 159.024 225.295C145.582 218.432 127.856 207.181 111.35 189.011Z" fill="#EFB134"/>
</svg>
